<svg width="100%" viewBox="0 0 348 372" fill="none" xmlns="http://www.w3.org/2000/svg">
<path d="M171.5 370.609C171.157 369.99 169.682 365.52 168.222 360.675C158.968 329.969 141.789 298.876 113.021 260.763C102.213 246.444 92.0403 233.765 64.532 200.326C32.6807 161.609 23.5571 149.205 14.3441 132.098C8.90366 121.996 3.26568 106.624 1.41034 96.8354C-0.443946 87.0521 -0.474173 71.0686 1.34585 62.7459C8.74913 28.8917 38.8206 3.35118 74.7788 0.377107C115.972 -3.0299 151.011 17.7795 169.422 56.5838L173.533 65.2489L176.628 58.4035C181.225 48.2321 185.653 41.3527 193.126 32.7694C212.154 10.9157 234.8 0.21076 262.081 0.17331C274.301 0.15656 281.303 1.17079 291.716 4.46585C307.29 9.39396 319.014 17.0711 329.455 29.179C356.665 60.7324 353.443 103.719 319.923 156.367C312.103 168.648 297.995 186.819 278.593 209.598C256.25 235.83 245.332 249.161 234.155 263.863C207.364 299.103 189.345 331.123 179.434 361.106C177.922 365.68 176.338 369.942 175.914 370.578C174.929 372.053 172.312 372.071 171.5 370.609Z" fill="#FF0000"/>
</svg>
